<?xml version="1.0" encoding="utf-8"?>
<svg xmlns="http://www.w3.org/2000/svg" width="100%" heght="100%" fill="currentColor" viewBox="0 0 32 32"><path d="M 16 29.124 C 15.913 29.124 15.825 29.124 15.737 29.117 C 13.115 28.885 11.111 26.345 11.169 23.333 L 11.169 18.052 L 7.378 18.052 C 5.75 18.052 4.734 16.031 5.549 14.417 C 5.639 14.229 5.755 14.058 5.887 13.91 L 15.289 3.213 C 15.68 2.763 16.319 2.763 16.713 3.213 L 26.112 13.91 C 27.267 15.223 26.746 17.477 25.174 17.967 C 24.996 18.022 24.808 18.052 24.623 18.052 L 20.832 18.052 L 20.832 23.425 C 20.852 24.721 20.489 25.984 19.8 27.013 C 18.885 28.351 17.483 29.126 16 29.124 Z M 16 5.327 L 7.164 15.382 C 6.998 15.568 7.075 15.892 7.299 15.962 C 7.326 15.971 7.353 15.975 7.378 15.975 L 12.98 15.975 L 12.98 23.333 C 12.938 25.237 14.182 26.857 15.834 27.049 C 16.666 27.111 17.479 26.769 18.078 26.103 C 18.683 25.453 19.024 24.54 19.019 23.59 L 19.019 15.975 L 24.623 15.975 C 24.855 15.977 25.002 15.691 24.889 15.459 C 24.873 15.43 24.856 15.404 24.834 15.382 L 16 5.327 Z"/>
</svg>